<?xml version="1.0" encoding="UTF-8"?>
<svg width="160px" height="160px" viewBox="0 0 160 160" version="1.1" xmlns="http://www.w3.org/2000/svg" xmlns:xlink="http://www.w3.org/1999/xlink">
    <title>illustration-empty-my-items-gm</title>
    <defs>
        <polygon id="path-1" points="0 0.0204915205 50.5346427 0.0204915205 50.5346427 129.706091 0 129.706091"></polygon>
        <polygon id="path-3" points="0 137.367609 50.5346427 137.367609 50.5346427 -0.000516819827 0 -0.000516819827"></polygon>
        <polygon id="path-5" points="14.8618182 2.84217094e-14 9.95168831 2.84217094e-14 0.574025974 2.84217094e-14 0.574025974 5.2612987 6.15324675 40.1890909 9.95168831 39.0275325 14.8618182 39.0275325 18.6581818 40.1890909 24.2374026 5.2612987 24.2374026 2.84217094e-14"></polygon>
    </defs>
    <g id="illustration-empty-my-items-gm" stroke="none" stroke-width="1" fill="none" fill-rule="evenodd">
        <g id="illustration-/-empty-my-items-/-gm">
            <g id="empty-my-items---gm">
                <g id="soda" transform="translate(72.000000, 3.000000)">
                    <g id="Group-3" transform="translate(0.000000, 7.661260)">
                        <mask id="mask-2" fill="white">
                            <use xlink:href="#path-1"></use>
                        </mask>
                        <g id="Clip-2"></g>
                        <path d="M50.5353787,103.531751 L50.5353787,36.9033385 C50.5353787,29.2699096 45.3770393,20.6441867 38.6377087,15.3907132 C31.89321,10.1346555 31.6968184,5.57372057 31.6968184,5.57372057 L31.6968184,0.0204915205 L25.3838642,0.0204915205 L25.1538794,0.0204915205 L18.8383411,0.0204915205 L18.8383411,5.57372057 C18.8383411,5.57372057 18.6393655,10.1346555 11.8974508,15.3907132 C5.15553619,20.6441867 -0.000218548175,29.2699096 -0.000218548175,36.9033385 L-0.000218548175,103.531751 C-0.000218548175,103.531751 -0.12119425,115.129188 3.51204914,121.046775 C7.14270842,126.964362 8.21769366,127.907558 10.6389946,127.907558 C13.0602954,127.907558 14.4066111,127.907558 15.8847158,126.832573 C17.3628205,125.755003 18.4403898,124.948764 18.4403898,124.948764 L20.4585713,127.907558 C20.4585713,127.907558 21.3423332,129.706091 23.0478386,129.706091 L25.1538794,129.706091 L25.3838642,129.706091 L27.4847368,129.706091 C29.1902423,129.706091 30.0740042,127.907558 30.0740042,127.907558 L32.0947697,124.948764 C32.0947697,124.948764 33.1697549,125.755003 34.6504437,126.832573 C36.1311325,127.907558 37.4748641,127.907558 39.896165,127.907558 C42.3148818,127.907558 43.3924511,126.964362 47.0256945,121.046775 C50.6563538,115.129188 50.5353787,103.531751 50.5353787,103.531751" id="Fill-1" fill="#68432A" mask="url(#mask-2)"></path>
                    </g>
                    <path d="M31.1288334,8.8817842e-16 L19.309164,8.8817842e-16 C18.1850809,8.8817842e-16 17.2728939,0.912186995 17.2728939,2.03885422 L17.2728939,6.39564536 C17.2728939,7.52231259 18.1850809,8.43449958 19.309164,8.43449958 L31.1288334,8.43449958 C32.2555007,8.43449958 33.1651036,7.52231259 33.1651036,6.39564536 L33.1651036,2.03885422 C33.1651036,0.912186995 32.2555007,8.8817842e-16 31.1288334,8.8817842e-16" id="Fill-4" fill="#EE3E23"></path>
                    <mask id="mask-4" fill="white">
                        <use xlink:href="#path-3"></use>
                    </mask>
                    <g id="Clip-7"></g>
                    <polygon id="Fill-6" fill="#EE3E23" mask="url(#mask-4)" points="3.26849658e-13 89.2594356 50.5346427 89.2594356 50.5346427 51.1336369 3.26849658e-13 51.1336369"></polygon>
                    <path d="M8.92677047,61.7873608 C8.37894145,61.7873608 15.1260243,65.9839378 27.1679263,61.7873608 C39.2072442,57.5907838 43.0368791,61.7873608 43.0368791,61.7873608 L43.0368791,77.5064359 C43.0368791,77.5064359 39.2072442,73.312443 27.1679263,77.5064359 C15.1260243,81.7030129 8.37894145,77.5064359 8.92677047,77.5064359 L8.92677047,61.7873608 Z" id="Fill-8" fill="#E7E6E6" mask="url(#mask-4)"></path>
                </g>
                <g id="peanut-butter" transform="translate(117.000000, 88.603740)">
                    <path d="M38.2115903,0 L0.788409704,0 C0.355309973,0 0,0.349090909 0,0.779220779 L0,8.17246753 C0,8.60051948 0.355309973,8.94961039 0.788409704,8.94961039 L38.2115903,8.94961039 C38.64469,8.94961039 39,8.60051948 39,8.17246753 L39,0.779220779 C39,0.349090909 38.64469,0 38.2115903,0" id="Fill-8" fill="#48C6F3"></path>
                    <path d="M36.9136232,8.97225974 L22.0437507,8.97225974 L16.9541609,8.97225974 L2.08637678,8.97225974 C1.65615294,8.97225974 0,11.2226494 0,13.6392727 L0,54.6886234 C0,59.3223896 2.60640463,62.8195325 2.60640463,62.8195325 C2.60640463,63.2475844 2.95935525,63.5987532 3.38957909,63.5987532 L15.7720895,63.5987532 L23.225822,63.5987532 L35.6104209,63.5987532 C36.0406447,63.5987532 36.3915069,63.2475844 36.3915069,62.8195325 C36.3915069,62.8195325 39,59.3223896 39,54.6886234 L39,13.6392727 C39,11.2226494 37.3438471,8.97225974 36.9136232,8.97225974" id="Fill-10" fill="#F9B718"></path>
                    <polygon id="Fill-13" fill="#48C6F3" points="0 47.9832727 39 47.9832727 39 17.3962597 0 17.3962597"></polygon>
                    <path d="M34.9121039,25.0884156 C34.4487273,24.8806234 30.5297662,23.2702338 20.7115844,23.2702338 C10.777039,23.2702338 5.11677922,25.0821818 4.54327273,25.2733506 C4.51002597,25.2608831 4.4934026,25.2546494 4.4934026,25.2546494 L4.4934026,25.289974 L4.4934026,40.8993247 L4.4934026,40.9346494 C4.4934026,40.9346494 4.51002597,40.9304935 4.54119481,40.9221818 C5.00457143,41.129974 8.92353247,42.7424416 18.7417143,42.7424416 C28.6762597,42.7424416 34.3365195,40.9304935 34.9121039,40.7372468 L34.9598961,40.7559481 L34.9598961,40.7185455 L34.9598961,25.1091948 L34.9598961,25.0738701 C34.9598961,25.0738701 34.9432727,25.0801039 34.9121039,25.0884156" id="Fill-15" fill="#FEFEFE"></path>
                    <polygon id="Fill-16" fill="#E7E5E4" points="9.60363636 30.139013 9.60363636 31.3712208 9.60363636 32.2023896 9.60363636 33.4345974 29.1174026 33.4345974 29.1174026 32.2023896 29.1174026 31.3712208 29.1174026 30.139013"></polygon>
                    <polygon id="Fill-17" fill="#E7E5E4" points="9.60280519 36.6761558 29.1165714 36.6761558 29.1165714 34.6127792 9.60280519 34.6127792"></polygon>
                </g>
                <g id="body-wash" transform="translate(26.276408, 36.000000)">
                    <path d="M11.229254,1.99501299 C11.229254,1.99501299 11.229254,0.000207792208 14.4521111,0.000207792208 L17.8204228,0.000207792208 L33.174189,0.000207792208 L36.5404228,0.000207792208 C39.7632799,0.000207792208 39.7632799,1.99501299 39.7632799,1.99501299 L42.1009423,12.9934545 L42.5248384,14.9841039 C42.5248384,14.9841039 42.136267,15.6698182 41.201202,16.6111169 C41.014189,16.8002078 40.8063968,16.9976104 40.5757475,17.2033247 C40.1123708,17.6147532 39.5575657,18.0531948 38.9009423,18.4895584 C37.5876955,19.3664416 35.8650981,20.2433247 33.6583449,20.8999481 C32.2786046,21.3113766 30.7097734,21.6376104 28.9289942,21.8225455 C28.5736695,21.8599481 28.2079553,21.8911169 27.8360072,21.9160519 C27.0900332,21.968 26.3108124,21.995013 25.496267,21.995013 C23.4599033,21.995013 21.6417215,21.8246234 20.027176,21.5357922 C19.0588644,21.3633247 18.1632799,21.1472208 17.334189,20.8999481 C16.507176,20.6526753 15.7466566,20.3763117 15.0526306,20.0812468 C14.1258773,19.6843636 13.3113319,19.2563117 12.6048384,18.8199481 C11.896267,18.3815065 11.2915916,17.9389091 10.7825007,17.5170909 C10.5269163,17.3051429 10.296267,17.0994286 10.0884747,16.8999481 C9.66873448,16.5051429 9.34250072,16.1456623 9.09315007,15.8464416 C8.96847474,15.6947532 8.86457864,15.5617662 8.77938383,15.4454026 C8.69418903,15.329039 8.62769552,15.2334545 8.57782539,15.1586494 C8.5030202,15.0464416 8.46769552,14.9841039 8.46769552,14.9841039 L11.229254,1.99501299 Z" id="Fill-18" fill="#DDE6F5"></path>
                    <path d="M25.4966825,2.70233766 C25.4966825,2.70233766 29.3304488,2.52987013 29.3304488,4.08415584 C29.3304488,5.63636364 28.1356436,9.38701299 25.4966825,9.54077922 C22.8577215,9.38701299 21.6629163,5.63636364 21.6629163,4.08415584 C21.6629163,2.52987013 25.4966825,2.70233766 25.4966825,2.70233766" id="Fill-19" fill="#FEFEFE"></path>
                    <path d="M10.9370981,3.37080519 C11.9635916,3.89236364 15.207228,5.23885714 21.9022929,5.61080519 C22.3677475,7.32093506 23.5334618,9.42794805 25.4970981,9.54015584 C27.4607345,9.42794805 28.6243708,7.32093506 29.0898254,5.61080519 C35.7848903,5.23885714 39.0285267,3.89236364 40.0550202,3.37080519 L42.1017734,12.9936623 L42.5256695,14.9843117 C42.5256695,14.9843117 42.1350202,15.670026 41.2020332,16.6113247 C41.0150202,16.7983377 40.807228,16.9978182 40.5745007,17.2035325 C40.113202,17.6128831 39.5563189,18.0513247 38.9017734,18.4897662 C37.5864488,19.3666494 35.8659293,20.2435325 33.659176,20.9001558 C32.2794358,21.3115844 30.7085267,21.6378182 28.9298254,21.8227532 C28.5724228,21.8601558 28.2087864,21.8913247 27.8368384,21.9162597 C27.0908644,21.9682078 26.3116436,21.9952208 25.4970981,21.9952208 C23.4586566,21.9952208 21.6425527,21.8248312 20.0280072,21.536 C19.0596955,21.3635325 18.1641111,21.1474286 17.3350202,20.9001558 C16.5080072,20.6528831 15.7474877,20.3765195 15.0513838,20.0814545 C14.1246306,19.6845714 13.3121631,19.2565195 12.6035916,18.8201558 C11.8950202,18.3817143 11.2924228,17.9391169 10.781254,17.5172987 C10.5277475,17.3053506 10.2950202,17.0975584 10.087228,16.9001558 C9.66956565,16.5053506 9.34125396,16.1437922 9.09398124,15.8445714 C8.96930591,15.694961 8.86540981,15.561974 8.77813708,15.4456104 C8.69294228,15.3292468 8.62644877,15.2315844 8.57657864,15.1588571 C8.50385137,15.0466494 8.46852669,14.9843117 8.46852669,14.9843117 L10.9370981,3.37080519 Z" id="Fill-20" fill="#C3C2C4"></path>
                    <path d="M29.3308644,4.08311688 C29.3308644,2.52883117 25.4970981,2.7012987 25.4970981,2.7012987 C25.4970981,2.7012987 21.6633319,2.52883117 21.6633319,4.08311688 C21.6633319,4.28051948 21.6820332,4.51532468 21.7215137,4.77298701 C14.7230721,4.35324675 11.6789163,2.84467532 11.1157994,2.53090909 L11.2300851,1.99480519 C11.2300851,1.99480519 11.2300851,0 14.4508644,0 L17.819176,0 L33.1729423,0 L36.541254,0 C39.7641111,0 39.7641111,1.99480519 39.7641111,1.99480519 L39.8763189,2.53090909 C39.3048903,2.84467532 36.2357994,4.34909091 29.2726825,4.77090909 C29.3100851,4.51532468 29.3308644,4.28051948 29.3308644,4.08311688" id="Fill-21" fill="#C3C2C4"></path>
                    <path d="M8.46748773,14.9851429 L25.4960592,14.9851429 L42.5246306,14.9851429 C42.5246306,14.9851429 51.1438514,48.1051429 50.9900851,61.3851429 C50.8383968,74.6630649 48.8435916,95.6313766 45.4669682,104.832416 C45.4669682,104.832416 45.6207345,107.976312 40.4030721,108.094753 C35.1854098,108.211117 25.4960592,108.094753 25.4960592,108.094753 C25.4960592,108.094753 15.8067085,108.211117 10.5890462,108.094753 C5.37346176,107.976312 5.52515007,104.832416 5.52515007,104.832416 C2.14852669,95.6313766 0.155799418,74.6630649 0.00203318421,61.3851429 C-0.15173305,48.1051429 8.46748773,14.9851429 8.46748773,14.9851429" id="Fill-22" fill="#0071DC"></path>
                    <path d="M10.5616176,101.616623 C9.77408513,100.347013 9.23798124,98.2046753 8.66863059,94.9776623 C1.04057864,65.1075325 6.41408513,39.8545455 6.41408513,39.8545455 C6.41408513,39.8545455 7.24525396,32.3948052 10.7569423,33.0202597 C10.977202,33.0202597 11.1164228,33.1075325 11.1164228,33.1075325 C11.1164228,33.1075325 45.7740851,64.2431169 43.9808384,82.8903896 C42.1855137,101.53974 33.3439553,103.094026 33.3439553,103.094026 L13.0883708,103.094026 C11.9891501,103.094026 11.1974618,102.636883 10.5657734,101.624935 L10.5657734,101.633247 C10.5657734,101.627013 10.5636955,101.620779 10.5616176,101.616623" id="Fill-23" fill="#FEFEFE"></path>
                    <polygon id="Fill-24" fill="#E5E6E6" points="10.7729423 87.8316883 32.9319033 87.8316883 32.9319033 86.3896104 10.7729423 86.3896104"></polygon>
                    <polygon id="Fill-25" fill="#E5E6E6" points="10.7729423 91.2935065 32.9319033 91.2935065 32.9319033 89.8514286 10.7729423 89.8514286"></polygon>
                    <polygon id="Fill-26" fill="#E5E6E6" points="10.7729423 94.7532468 32.9319033 94.7532468 32.9319033 93.3111688 10.7729423 93.3111688"></polygon>
                    <path d="M21.9496695,80.1982338 C21.9496695,80.1982338 24.071228,67.7431688 33.0166825,67.7431688 C33.0166825,67.7431688 32.8275916,79.5727792 21.9496695,80.1982338" id="Fill-27" fill="#CCDB2B"></path>
                    <path d="M20.6559553,80.1982338 C20.6559553,80.1982338 18.7484228,67.9239481 10.0273838,63.5644675 C10.0273838,63.5644675 7.16608513,77.2122597 20.6559553,80.1982338" id="Fill-28" fill="#CCDB2B"></path>
                    <path d="M21.9496695,74.3966753 C21.9496695,74.3966753 23.3127864,70.5816104 24.6073319,69.8314805 C24.6073319,69.8314805 25.4946046,66.6294026 22.6997994,64.246026 C22.6997994,64.246026 20.8629163,67.0387532 21.405254,70.7166753 C21.405254,70.7166753 22.4940851,72.2169351 21.9496695,74.3966753" id="Fill-29" fill="#CCDB2B"></path>
                    <path d="M20.9289942,72.8980779 C20.9289942,72.8980779 20.4531501,70.9905455 19.9066566,70.5147013 C19.9066566,70.5147013 19.1565267,66.9697662 16.5674358,64.5178182 C16.5674358,64.5178182 16.1601631,65.9495065 16.9767864,68.1978182 C16.9767864,68.1978182 20.7253579,72.4887273 20.9289942,74.9427532" id="Fill-30" fill="#CCDB2B"></path>
                </g>
                <g id="lotion" transform="translate(3.999912, 73.582516)">
                    <path d="M0.05598449,72.7564969 L0.122477996,25.0619515 C0.122477996,25.0619515 -0.189210315,18.6266268 0.53598449,15.2022112 C1.26533514,11.7757177 9.93858189,10.3689645 9.93858189,10.3689645 L14.0653351,10.3689645 L18.1920884,10.3689645 C18.1920884,10.3689645 26.8674131,11.7757177 27.5946858,15.2022112 C28.3219585,18.6266268 28.0102702,25.0619515 28.0102702,25.0619515 L28.0746858,72.7564969 C28.0746858,72.7564969 28.735465,76.9622112 25.5188416,77.2738995 C22.3001403,77.5855879 14.0653351,77.8972762 14.0653351,77.8972762 C14.0653351,77.8972762 5.83052994,77.5855879 2.61390657,77.2738995 C-0.604794731,76.9622112 0.05598449,72.7564969 0.05598449,72.7564969" id="Fill-31" fill="#FCD1B4"></path>
                    <path d="M6.44310137,0.0130164233 L15.3532312,0.0130164233 C15.3532312,0.0130164233 17.8571273,-0.132438122 17.8571273,0.549120319 L17.8571273,6.24054889 L18.7818027,6.24054889 L18.7818027,11.0841853 L8.67894553,11.0841853 L8.67894553,6.24054889 L9.48725722,6.24054889 L9.48725722,1.9122372 L6.37452994,1.9122372 C6.37452994,1.9122372 4.43582865,2.08886058 3.88310137,2.50444499 L3.39894553,0.966782657 C3.39894553,0.966782657 3.9516728,0.0130164233 6.44310137,0.0130164233" id="Fill-32" fill="#E7E5E4"></path>
                    <polygon id="Fill-33" fill="#F59370" points="3.86710137 58.2189385 24.2619066 58.2189385 24.2619066 24.845432 3.86710137 24.845432"></polygon>
                    <path d="M15.9510494,42.7128606 C15.9510494,42.7128606 16.2980624,38.8479255 19.3837767,38.1705229 C19.3837767,38.1705229 19.3442962,43.8577956 15.9510494,42.7128606" id="Fill-34" fill="#CCDB2B"></path>
                    <path d="M12.8239845,41.9030943 C12.8239845,41.9030943 8.99021826,41.2942632 8.52476371,38.1711463 C8.52476371,38.1711463 14.197491,38.5950424 12.8239845,41.9030943" id="Fill-35" fill="#CCDB2B"></path>
                    <path d="M15.0490235,41.224445 C15.0490235,41.224445 17.2495429,38.0265229 15.3066858,35.5371723 C15.3066858,35.5371723 11.7077247,39.9402892 15.0490235,41.224445" id="Fill-36" fill="#CCDB2B"></path>
                    <path d="M15.1818027,43.2616398 C15.1818027,43.2616398 11.732452,41.4829385 9.50699748,43.7250164 C9.50699748,43.7250164 14.3298546,46.7380034 15.1818027,43.2616398" id="Fill-37" fill="#CCDB2B"></path>
                    <path d="M12.6625299,38.1703151 C12.6625299,38.1703151 13.0261663,35.9905749 10.4308416,34.3822632 C10.4308416,34.3822632 10.0152572,37.1313541 12.6625299,38.1703151" id="Fill-38" fill="#CCDB2B"></path>
                </g>
                <g id="Group-3" transform="translate(22.371844, 112.000000)">
                    <g id="Group-2">
                        <polygon id="Fill-39" fill="#424143" points="14.8618182 0 9.94961039 0 0.574025974 0 0.574025974 5.2612987 6.15532468 40.187013 9.94961039 39.0254545 14.8618182 39.0254545 18.6581818 40.187013 24.2394805 5.2612987 24.2394805 0"></polygon>
                        <mask id="mask-6" fill="white">
                            <use xlink:href="#path-5"></use>
                        </mask>
                        <g id="Clip-42"></g>
                        <polygon id="Fill-41" fill="#0F77BD" mask="url(#mask-6)" points="-3 10.5662338 27.8114286 10.5662338 27.8114286 5.42337662 -3 5.42337662"></polygon>
                        <polygon id="Fill-43" fill="#A7A3A4" mask="url(#mask-6)" points="-3 11.5802597 27.8114286 11.5802597 27.8114286 10.3709091 -3 10.3709091"></polygon>
                        <g id="razer" mask="url(#mask-6)">
                            <g transform="translate(7.918442, 14.384416)">
                                <path d="M8.67532468,0.389402597 L0.301298701,0.389402597 C0.135064935,0.389402597 0,0.524467532 0,0.688623377 L0,2.38212987 C0,2.54628571 0.135064935,2.68135065 0.301298701,2.68135065 L1.10961039,2.68135065 L1.10961039,3.17381818 C1.10961039,3.29849351 1.21142857,3.40031169 1.3361039,3.40031169 L3.88987013,3.40031169 L3.43688312,17.4366753 C3.43272727,17.5862857 3.52623377,17.713039 3.64467532,17.713039 L3.77766234,17.713039 L5.19688312,17.713039 L5.33194805,17.713039 C5.44831169,17.713039 5.54181818,17.5862857 5.53766234,17.4366753 L5.08467532,3.40031169 L7.63844156,3.40031169 C7.76311688,3.40031169 7.86493506,3.29849351 7.86493506,3.17381818 L7.86493506,2.68135065 L8.67532468,2.68135065 C8.83948052,2.68135065 8.97454545,2.54628571 8.97454545,2.38212987 L8.97454545,0.688623377 C8.97454545,0.524467532 8.83948052,0.389402597 8.67532468,0.389402597" id="Fill-49" fill="#FEFEFE"></path>
                                <polygon id="Fill-51" fill="#434243" points="0.503896104 1.22701299 8.47064935 1.22701299 8.47064935 0.850909091 0.503896104 0.850909091"></polygon>
                                <polygon id="Fill-53" fill="#434243" points="0.503896104 1.84415584 8.47064935 1.84415584 8.47064935 1.46805195 0.503896104 1.46805195"></polygon>
                            </g>
                        </g>
                    </g>
                    <g id="Group" transform="translate(5.628156, 36.360000)">
                        <rect id="Rectangle" fill="#FFFFFF" x="0" y="3.0966664" width="13.5542857" height="4.49845049"></rect>
                        <path d="M0.000623376625,0.540121115 L0.000623376625,5.42531592 L4.95438961,5.42531592 C4.94192208,5.33804319 4.93361039,5.24869254 4.93361039,5.15726397 C4.93361039,4.13700423 5.75854545,3.31206917 6.77880519,3.31206917 C7.79698701,3.31206917 8.62192208,4.13700423 8.62192208,5.15726397 C8.62192208,5.24869254 8.61361039,5.33804319 8.60114286,5.42531592 L13.5549091,5.42531592 L13.5549091,0.540121115 L0.000623376625,0.540121115 Z" id="Fill-45" fill="#A7A3A4"></path>
                        <path d="M6.77880519,7.00121202 C6.02244156,7.00121202 5.37412987,6.54614709 5.08945455,5.89575748 L0.000623376626,5.89575748 L0.000623376626,7.06978345 C0.000623376626,7.79082241 0.586597403,8.37471852 1.30763636,8.37471852 L12.249974,8.37471852 C12.971013,8.37471852 13.5549091,7.79082241 13.5549091,7.06978345 L13.5549091,5.89575748 L8.46815584,5.89575748 C8.18348052,6.54614709 7.53516883,7.00121202 6.77880519,7.00121202" id="Fill-47" fill="#A7A3A4"></path>
                    </g>
                </g>
                <g id="apple-puree-pouch" transform="translate(72.000000, 99.000000)">
                    <path d="M36.6588371,8.34282369 C36.3502312,7.27673052 26.4923763,7.98687482 20.0239261,7.98687482 C19.5259484,7.98687482 18.9788742,7.99388859 18.3967313,8.00440924 C17.8180952,7.99388859 17.2692676,7.98687482 16.7712899,7.98687482 C10.3028397,7.98687482 0.444984794,7.27673052 0.136378877,8.34282369 C-0.170473597,9.40891685 0.136378877,12.2547544 0.136378877,15.4565408 C0.136378877,15.4565408 1.3690491,52.0947262 1.67765502,54.228666 C1.98626094,56.3626057 11.5355099,53.1625728 13.0750326,54.9405637 C13.8868766,55.8769021 15.7613069,56.3257834 17.5585856,56.4344969 L17.5585856,56.4397572 C17.8268624,56.4537848 18.1056598,56.462552 18.3932244,56.462552 L18.3967313,56.462552 L18.403745,56.462552 C18.6895562,56.462552 18.9683536,56.4537848 19.2366303,56.4397572 L19.2366303,56.4344969 C21.0339091,56.3257834 22.9100928,55.8769021 23.7201833,54.9405637 C25.2614595,53.1625728 34.8107085,56.3626057 35.1193144,54.228666 C35.4261669,52.0947262 36.6588371,15.4565408 36.6588371,15.4565408 C36.6588371,12.2547544 36.967443,9.40891685 36.6588371,8.34282369" id="Fill-54" fill="#99C840"></path>
                    <path d="M30.0516896,3.52857138 C29.8921263,3.02533332 29.6185893,2.60100019 29.2661473,2.24505132 C27.5004305,0.458293195 23.7322821,0.319771221 22.0244289,0.137413179 C20.8198137,0.00941186161 19.6081848,-0.029163878 18.3983094,0.0216859606 C17.1884339,-0.029163878 15.9750515,0.00941186161 14.7721898,0.137413179 C13.0625832,0.319771221 9.29618825,0.458293195 7.53047144,2.24505132 C7.17802946,2.60100019 6.90449239,3.02533332 6.74492911,3.52857138 C6.68180517,3.71969664 6.63446222,3.93537009 6.67303796,4.137016 C6.75544976,4.55608881 7.15172782,4.6174593 7.46208718,4.72792619 C10.5639273,5.82908822 13.3659288,4.51400618 16.0855184,3.34270645 L16.0855184,5.14173867 L15.3736207,5.14173867 L15.3736207,10.4774648 L21.4212446,10.4774648 L21.4212446,5.14173867 L20.7093469,5.14173867 L20.7093469,3.34270645 C23.4289365,4.51400618 26.2309379,5.82908822 29.3327781,4.72792619 C29.6448909,4.6174593 30.0394155,4.55608881 30.1218273,4.137016 C30.1604031,3.93537009 30.1130601,3.71969664 30.0516896,3.52857138" id="Fill-55" fill="#48B557"></path>
                    <path d="M31.7016792,30.5391289 C31.7016792,37.8860539 25.7452343,43.8424988 18.3983094,43.8424988 C11.0513844,43.8424988 5.09493952,37.8860539 5.09493952,30.5391289 C5.09493952,23.192204 11.0513844,17.2357591 18.3983094,17.2357591 C25.7452343,17.2357591 31.7016792,23.192204 31.7016792,30.5391289" id="Fill-56" fill="#D7E599"></path>
                    <path d="M18.8957611,23.657217 C18.8957611,23.657217 18.4819486,20.3554843 15.1065714,20.3695119 C15.1065714,20.3695119 15.3345189,24.2025377 19.0255158,24.3778819" id="Fill-57" fill="#718C42"></path>
                    <path d="M18.1398519,20.5329328 C18.0627004,20.4154521 18.0504263,20.2909577 18.0118506,20.2015321 C17.8137116,19.7491439 17.692724,19.7736921 17.4893247,19.5334704 C17.2473496,19.2441524 17.8505339,18.9197655 17.8505339,18.9197655 C17.8505339,18.9197655 18.4431975,18.56557 18.5484041,19.0425064 C18.6536106,19.5194429 18.5466506,19.6965406 18.6799123,20.0595032 C18.6921864,20.0945721 18.7114742,20.1506822 18.7325155,20.2208199 C18.7325155,20.2208199 19.4461667,23.3542221 19.4935097,24.7885382 C19.4935097,24.7885382 19.3479739,24.9673894 18.9902716,24.7885382 C18.9902716,24.7885382 18.7903791,21.5341485 18.1398519,20.5329328" id="Fill-58" fill="#68442A"></path>
                    <path d="M16.0686854,23.6957927 C16.0686854,23.6957927 13.7716754,23.304775 11.4746655,25.063478 C9.17765552,26.8239345 9.27584832,31.4074337 10.6435336,34.7109198 C12.0129724,38.0144059 12.5004295,38.6473987 12.5004295,38.6473987 C12.5004295,38.6473987 13.6734826,40.5323496 15.5794749,40.5428703 C17.4854671,40.5551444 18.023774,40.030865 18.6094239,40.0483994 C19.1968272,40.0659339 19.3423629,40.4341568 19.9297662,40.5428703 C20.5154161,40.6533372 21.8357584,41.1197529 23.3507329,39.7871365 C24.8657075,38.45452 27.3082531,31.6616829 27.113621,28.386252 C26.9172354,25.1125744 23.1070044,23.6957927 21.053723,24.037714 C19.0004416,24.3796354 16.0686854,23.6957927 16.0686854,23.6957927" id="Fill-59" fill="#EE4023"></path>
                </g>
            </g>
        </g>
    </g>
</svg>